<svg id="bd85eb02-67f8-40ee-9b18-a2278f5b150b" data-name="Layer 1" xmlns="http://www.w3.org/2000/svg" viewBox="0 0 465.21 123.626"><title>logo-akana</title><path d="M463.942,360.9H446.48c-.072-1.354-.192-2.573-.193-3.791q-.018-24.6,0-49.211c.038-20.89,17.238-38.827,38.5-40.2,19.208-1.24,38.811,15.2,41.487,34.867a54.17,54.17,0,0,1,.3,7.213q.036,23.4.013,46.8v4.248H508.916V356.7c-.008-16.288.206-32.581-.093-48.865-.234-12.722-10.577-22.684-22.627-22.488-12.28.2-22.21,10.57-22.243,23.334-.042,15.945-.011,31.89-.011,47.834Z" transform="translate(-164.543 -239.368)" fill="#e8262a"/><path d="M629.533,313.9A47.773,47.773,0,0,0,573.6,268.319c-22.389,3.806-42.893,25.936-38.835,53.59,2.593,17.675,12.074,30.522,28.329,37.312,16.2,6.767,31.857,4.351,45.905-6.6.763-.6,1.586-1.115,2.937-2.057v10.25h17.453a12.383,12.383,0,0,0,.209-1.523C629.612,344.16,629.979,329.015,629.533,313.9ZM581.67,345.23a30.174,30.174,0,0,1-29.755-29.867c-.039-16.262,13.746-30.041,30.034-30.02,16.208.021,30.089,13.964,29.984,30.118C611.828,331.753,598.062,345.294,581.67,345.23Z" transform="translate(-164.543 -239.368)" fill="#e8262a"/><path d="M260.027,316.011c.351-28.068-23.281-46.536-43.286-48.193-31.816-2.637-57.927,26.105-51.106,57.4,7.75,35.554,47.988,48.756,74.2,27.035.576-.477,1.249-.836,2.547-1.692v10.273H260v-3.9C260,343.291,259.856,329.649,260.027,316.011ZM212.24,345.23a30.175,30.175,0,0,1-29.95-30.024c.07-16.279,13.964-30.019,30.2-29.862,16.132.156,29.806,13.878,29.824,29.928A30.315,30.315,0,0,1,212.24,345.23Z" transform="translate(-164.543 -239.368)" fill="#e8262a"/><path d="M438.337,314.878c-.031-29.561-27.615-52.158-56.582-46.364-26.326,5.265-42.842,29.642-37.523,56.549,6.85,34.656,46.535,49.086,73.513,27.693.765-.606,1.562-1.172,2.9-2.173v10.255H438.34v-3.984Q438.34,335.866,438.337,314.878ZM390.586,345.23a29.8,29.8,0,0,1-29.563-29.86c-.016-16.5,13.482-30.093,29.8-30.026,16.213.066,29.8,13.623,29.826,29.76A30,30,0,0,1,390.586,345.23Z" transform="translate(-164.543 -239.368)" fill="#e8262a"/><path d="M307.464,314.711l45.365-45.329c-7.269,0-14.132-.153-20.981.1a8.727,8.727,0,0,0-5.31,2.212c-11.5,11.2-22.828,22.567-34.221,33.873-.809.8-1.724,1.5-3.207,2.777V303.3c0-20.065-.05-40.129.056-60.194.012-2.38-.51-3.536-2.477-3.7l0-.039H274.416v.01c-2.4.027-3.04,1.183-3.033,3.9q.146,56.927.072,113.853c0,1.214.124,2.428.192,3.671H289.11V332.888l4.445-3.339c.555-.47,1.173-.933,1.826-1.394l9.1,8.964q7.689,7.627,15.431,15.2l.26.256,0-.006q3.23,3.149,6.477,6.28a8.331,8.331,0,0,0,5.014,2.105c6.182.249,12.379.11,18.571.082a25,25,0,0,0,2.927-.409Z" transform="translate(-164.543 -239.368)" fill="#e8262a"/></svg>