<?xml version="1.0" encoding="utf-8"?>
<!-- Generator: Adobe Illustrator 22.1.0, SVG Export Plug-In . SVG Version: 6.00 Build 0)  -->
<svg version="1.1" id="Layer_1" xmlns="http://www.w3.org/2000/svg" xmlns:xlink="http://www.w3.org/1999/xlink" x="0px" y="0px"
	 viewBox="0 0 792 272.7" style="enable-background:new 0 0 792 272.7;" xml:space="preserve">
<style type="text/css">
	.st0{fill:#238DC1;}
	.st1{fill:#002B49;}
	.st2{fill:#236092;}
</style>
<g>
	<path class="st0" d="M311.7,238h-32.3l-5.3,11.6h-12.6l27.7-61.7h12.7l27.7,61.7h-12.7L311.7,238z M295.6,200.9l-11.5,26.3H307
		L295.6,200.9z"/>
	<path class="st0" d="M343.6,188v35.6l14.6-17.5h12.9v0.6l-17.7,19.8l20.2,22.2v0.8h-13l-17-19.7v19.7h-10.8V188H343.6z"/>
	<path class="st0" d="M408.6,206.2h10.3v43.5h-10.1l-0.5-6.3c-2.5,5.1-9.3,7.6-14.1,7.7c-12.9,0.1-22.4-7.8-22.4-23.1
		c0-15,10-22.8,22.7-22.8c5.8,0,11.4,2.7,13.8,7.1L408.6,206.2z M382.5,227.9c0,8.3,5.7,13.2,12.9,13.2c16.9,0,16.9-26.4,0-26.4
		C388.3,214.7,382.5,219.6,382.5,227.9z"/>
	<path class="st0" d="M460,249.7v-22.8c0-6.6-3.6-11.6-10.5-11.6c-6.6,0-11.1,5.6-11.1,12.2v22.2h-10.7v-43.6h9.6l0.7,5.9
		c4.4-4.3,8.8-6.5,14.3-6.5c10.2,0,18.4,7.7,18.4,21.3v22.8H460z"/>
	<path class="st0" d="M514.6,206.2h10.3v43.5h-10.1l-0.5-6.3c-2.5,5.1-9.3,7.6-14.1,7.7c-12.9,0.1-22.4-7.8-22.4-23.1
		c0-15,10-22.8,22.7-22.8c5.8,0,11.4,2.7,13.8,7.1L514.6,206.2z M488.5,227.9c0,8.3,5.7,13.2,12.9,13.2c16.9,0,16.9-26.4,0-26.4
		C494.2,214.7,488.5,219.6,488.5,227.9z"/>
</g>
<g>
	<g>
		<g>
			<path class="st1" d="M211.5,86.4h-18.1L170,59.4h-14.6v26.9h-15.2V5.7c12.8,0,25.6,0.1,38.3,0.1c19,0.1,29,12.8,29,26.7
				c0,11-5.1,22.2-20.4,25.3l24.4,27.5V86.4z M155.3,20v25.8h23.1c9.7,0,13.8-6.5,13.8-12.9c0-6.4-4.3-12.9-13.8-12.9H155.3z"/>
		</g>
	</g>
	<g>
		<g>
			<path class="st1" d="M273.1,58.1c0,16.3-11.2,29.6-29.6,29.6c-18.4,0-29.5-13.2-29.5-29.6c0-16.2,11.3-29.6,29.4-29.6
				C261.5,28.5,273.1,41.8,273.1,58.1z M228.1,58.1c0,8.6,5.2,16.7,15.4,16.7c10.2,0,15.4-8.1,15.4-16.7c0-8.5-6-16.8-15.4-16.8
				C233.4,41.3,228.1,49.5,228.1,58.1z"/>
		</g>
	</g>
	<g>
		<g>
			<path class="st1" d="M327.4,23.9l10.4,7.8l-6.3,8.1c4.4,4.9,6,10.6,6,16.8c0,7-2.7,16.9-12,21.2c9.4,4.7,11.7,11.5,11.7,18.8
				c0,15.7-12,25.3-28.4,25.3c-16.5,0-28.8-10-28.8-25.3h13.9c0,7.4,6.8,12.2,14.9,12.2c8.1,0,14.4-4.4,14.4-12.2
				c0-7.8-7.4-11.4-14.4-11.4C291,85.1,280,74.3,280,56.6c0-17.7,12.9-28.8,28.8-28.8c4.5,0,9.1,0.6,13,3.2L327.4,23.9z M293.9,56.6
				c0,9.9,6.7,15.8,14.9,15.8c8.1,0,14.7-6,14.7-15.8c0-9.8-6.7-16-14.7-16C300.6,40.6,293.9,46.7,293.9,56.6z"/>
		</g>
	</g>
	<g>
		<g>
			<path class="st1" d="M360.8,29.6v29.7c0,8.6,4.7,15.2,13.7,15.2c8.6,0,14.5-7.3,14.5-15.9v-29h13.9v56.9h-12.5l-0.9-7.7
				c-5.9,5.8-11.3,8.5-19.2,8.5c-13.6,0-23.5-10.2-23.5-27.9V29.6H360.8z"/>
		</g>
	</g>
	<g>
		<g>
			<path class="st1" d="M427.4,63c0.9,7,7,12.1,16.9,12.1c5.2,0,12-1.9,15.2-5.3l9,8.9c-6,6.2-15.8,9.2-24.4,9.2
				c-19.6,0-31.2-12.1-31.2-30.3c0-17.3,11.7-29.7,30.2-29.7c19,0,30.8,11.7,28.7,35.1H427.4z M458.2,51.4c-0.9-7.4-6.7-11-14.7-11
				c-7.6,0-13.8,3.7-15.9,11H458.2z"/>
		</g>
	</g>
	<g>
		<g>
			<path class="st1" d="M570.6,86.4h-12.9l-10-25.3l-8.5-25.4l-8.4,25.7L521,86.4h-12.9L478.5,5.8h17l19,58.1l19.6-58.1h9.9
				l20.1,58.1l18.4-58.1h17L570.6,86.4z"/>
		</g>
	</g>
	<g>
		<g>
			<path class="st1" d="M643.4,29.6h13.5v56.7h-13.2l-0.7-8.3c-3.2,6.7-12.1,9.9-18.4,10c-16.8,0.1-29.2-10.2-29.2-30.2
				c0-19.6,13-29.8,29.6-29.7c7.6,0,14.9,3.6,18.1,9.2L643.4,29.6z M609.3,58c0,10.8,7.5,17.3,16.8,17.3c22.1,0,22.1-34.4,0-34.4
				C616.8,40.8,609.3,47.1,609.3,58z"/>
		</g>
	</g>
	<g>
		<g>
			<path class="st1" d="M724,29.5l-24.2,57.1h-15.2l-24.3-57.1h15.3l7.8,18.8l8.7,23.9l8.6-23.7l7.8-19H724z"/>
		</g>
	</g>
	<g>
		<g>
			<path class="st1" d="M742.8,63c0.9,7,7,12.1,16.9,12.1c5.2,0,12-1.9,15.2-5.3l9,8.9c-6,6.2-15.8,9.2-24.4,9.2
				c-19.6,0-31.2-12.1-31.2-30.3c0-17.3,11.7-29.7,30.2-29.7c19,0,30.8,11.7,28.7,35.1H742.8z M773.7,51.4c-0.9-7.4-6.7-11-14.7-11
				c-7.6,0-13.8,3.7-15.9,11H773.7z"/>
		</g>
	</g>
	<g>
		<g>
			<g>
				<path class="st1" d="M365.9,104.1c-1.3-2.1-3.4-2.4-5.3-2.4c-2.1,0-5.4,0.8-5.4,3.6c0,2.3,2.4,2.8,5.4,3.3
					c3.4,0.7,6.9,1.3,6.9,5.1c0,4-4,4.9-7,4.9c-2.7,0-5.9-1.1-7.2-3.8l1.2-0.6c1.1,2.1,3.9,3.2,6,3.2c2.2,0,5.6-0.6,5.6-3.7
					c0-2.7-2.9-3.2-5.8-3.8c-3.2-0.6-6.5-1.3-6.5-4.5c-0.1-3.7,3.8-4.9,6.7-4.9c2.5,0,4.7,0.4,6.5,3L365.9,104.1z"/>
				<path class="st1" d="M360.6,119.3c-2.8,0-6.3-1.1-7.9-4.2l-0.3-0.6l2.4-1.2l0.3,0.6c0.9,1.9,3.4,2.8,5.4,2.8
					c1.5,0,4.9-0.3,4.9-3c0-2-2.1-2.5-5.3-3.1c-3.3-0.7-7.1-1.4-7.1-5.2c0-1.4,0.4-2.6,1.3-3.5c1.3-1.3,3.5-2.1,6.1-2.1
					c2.9,0,5.2,0.6,7,3.3l0.4,0.6l-2.3,1.4l-0.4-0.6c-1-1.7-2.7-2-4.8-2.1c-0.5,0-4.7,0.1-4.7,2.9c0,1.6,1.8,2.1,4.9,2.7l0.2,0
					c3.4,0.7,7.3,1.4,7.3,5.7C368.2,117.2,365.3,119.3,360.6,119.3z M365,110.5c1,0.6,1.7,1.4,1.8,2.6
					C366.7,111.9,366.1,111.1,365,110.5z M354.5,105.5c0,0.6,0.2,1.1,0.5,1.5C354.8,106.6,354.6,106.1,354.5,105.5z M355.7,102.6
					c-0.1,0.1-0.1,0.1-0.2,0.2c-0.6,0.6-0.9,1.4-1,2.3C354.6,104,355,103.2,355.7,102.6z"/>
			</g>
		</g>
		<g>
			<g>
				<path class="st1" d="M428.9,109.5c0,4.6-3,9.1-8.9,9.1c-5.9,0-8.9-4.5-8.9-9.2c0-4.7,3-9.1,8.9-9.1
					C425.9,100.4,428.9,104.8,428.9,109.5z M412.4,109.5c0,4,2.6,7.9,7.6,7.9c5,0,7.6-3.9,7.6-7.9c0-4.1-2.5-7.9-7.6-7.9
					C414.9,101.7,412.4,105.3,412.4,109.5z"/>
				<path class="st1" d="M420,119.3c-6.6,0-9.6-5.1-9.6-9.8c0-4.9,3-9.8,9.6-9.8c2.8,0,5.1,0.9,6.8,2.6c1.8,1.8,2.8,4.3,2.7,7.2
					C429.6,114.3,426.5,119.3,420,119.3z M420,102.3c-2,0-3.7,0.6-4.9,1.9c-1.3,1.3-2,3.2-2,5.3c0,3.6,2.2,7.2,6.9,7.2
					c4.7,0,6.9-3.7,6.9-7.2C426.9,105.9,424.8,102.3,420,102.3z"/>
			</g>
		</g>
		<g>
			<g>
				<path class="st1" d="M475,109.1h10.2v1.3H475v8h-1.4v-17.7h11.9v1.4H475V109.1z"/>
				<polygon class="st1" points="475.6,119 472.9,119 472.9,100 486.2,100 486.2,102.7 475.6,102.7 475.6,108.4 485.8,108.4 
					485.8,111 475.6,111 				"/>
			</g>
		</g>
		<g>
			<g>
				<path class="st1" d="M538.4,101.9H532v-1.2h14.1v1.2h-6.4v16.4h-1.4V101.9z"/>
				<polygon class="st1" points="540.5,119 537.7,119 537.7,102.6 531.3,102.6 531.3,100 546.8,100 546.8,102.6 540.5,102.6 				"/>
			</g>
		</g>
		<g>
			<g>
				<path class="st1" d="M598.3,100.7h0.8l5.4,16.2l5.5-16.2h1.5l-6.2,17.7h-1.5l-2.8-8.3l-2.2-7l-2.2,6.9l-2.8,8.3h-1.5l-6.2-17.7
					h1.4l5.5,16.2L598.3,100.7z"/>
				<polygon class="st1" points="605.6,119.1 603.2,119.1 598.6,105.4 597.1,110.3 594.1,119.1 591.6,119.1 585,100 587.9,100 
					592.8,114.7 597.8,100 599.5,100 604.4,114.7 609.4,100 612.3,100 				"/>
			</g>
		</g>
		<g>
			<g>
				<path class="st1" d="M665.4,118.3l-1.9-4.3h-10.6l-1.9,4.3h-1.5l7.9-17.7h1.5l7.9,17.7H665.4z M662.9,112.7l-4.7-10.8l-4.7,10.8
					H662.9z"/>
				<path class="st1" d="M667.9,119h-3l-1.9-4.3h-9.7l-1.9,4.3h-3l8.5-19h2.4L667.9,119z M654.5,112.1h7.4l-3.7-8.4L654.5,112.1z"/>
			</g>
		</g>
		<g>
			<g>
				<path class="st1" d="M724.8,118.3H723l-6.1-6.7h-4.8v6.7h-1.4v-17.7c2.6,0,5.2,0,7.8,0c3.8,0,5.8,2.8,5.8,5.5
					c0,2.9-1.9,5.4-5.7,5.4L724.8,118.3z M712.1,110.4h6.3c3.1,0,4.4-1.7,4.5-4.2c0-2.1-1.4-4.2-4.3-4.2h-6.4V110.4z"/>
				<path class="st1" d="M726.4,119h-3.7l-6.1-6.7h-3.8v6.7H710v-19h8.5c4.2,0,6.5,3.1,6.5,6.2c0,1.7-0.6,3.2-1.7,4.3
					c-0.9,0.9-2,1.4-3.3,1.7L726.4,119z M712.8,109.7h5.6c2.5,0,3.8-1.2,3.8-3.5c0-1-0.3-1.9-1-2.5c-0.6-0.7-1.6-1-2.7-1h-5.7V109.7
					z M722.2,102.8c0.8,0.9,1.3,2.1,1.3,3.4c0,1.5-0.4,2.6-1.2,3.5c0,0,0.1-0.1,0.1-0.1c0.8-0.8,1.3-2,1.3-3.3
					C723.6,105,723.1,103.7,722.2,102.8z"/>
			</g>
		</g>
		<g>
			<g>
				<path class="st1" d="M772.4,108.8h10.3v1.2h-10.3v7h11.2v1.3h-12.5v-17.7h12.2v1.3h-10.9V108.8z"/>
				<polygon class="st1" points="784.2,119 770.4,119 770.4,100 783.9,100 783.9,102.6 773.1,102.6 773.1,108.1 783.4,108.1 
					783.4,110.7 773.1,110.7 773.1,116.3 784.2,116.3 				"/>
			</g>
		</g>
	</g>
	<g>
		<path class="st2" d="M42.2,26c-15.3,0-37.4,6.8-37.4,6.8c-1.4,6.5,3.3,9.7,3.3,9.7c16.9-6.3,35.8-6.3,35.8-6.3h37.5
			c3.2-5.4,0-10.3,0-10.3H42.2z"/>
		<path class="st2" d="M42.2,54.6c-15.3,0-37.4,6.8-37.4,6.8c-1.4,6.5,3.3,9.7,3.3,9.7c16.9-6.3,35.8-6.3,35.8-6.3h37.5
			c3.2-5.4,0-10.3,0-10.3H42.2z"/>
		<path class="st2" d="M42.2,83.1C26.9,83.1,4.8,90,4.8,90c-1.4,6.5,3.3,9.7,3.3,9.7c16.9-6.3,35.8-6.3,35.8-6.3h37.5
			c3.2-5.4,0-10.3,0-10.3H42.2z"/>
	</g>
	<g>
		<path class="st0" d="M80.3,79.4c15.3,0,37.4-6.8,37.4-6.8c1.4-6.5-3.3-9.7-3.3-9.7c-16.9,6.3-35.8,6.3-35.8,6.3H41.1
			c-3.2,5.4,0,10.3,0,10.3H80.3z"/>
		<path class="st0" d="M80.3,50.9c15.3,0,37.4-6.8,37.4-6.8c1.4-6.5-3.3-9.7-3.3-9.7c-16.9,6.3-35.8,6.3-35.8,6.3H41.1
			c-3.2,5.4,0,10.3,0,10.3H80.3z"/>
		<path class="st0" d="M80.3,22.3c15.3,0,37.4-6.8,37.4-6.8c1.4-6.5-3.3-9.7-3.3-9.7C97.5,12,78.6,12,78.6,12H41.1
			c-3.2,5.4,0,10.3,0,10.3H80.3z"/>
	</g>
</g>
<g>
	<rect x="6.1" y="153.6" class="st0" width="779.7" height="2.2"/>
</g>
</svg>
