<svg id="e7efdcb5-eb8a-40e2-a960-e4e6791d1a01" data-name="Layer 1" xmlns="http://www.w3.org/2000/svg" viewBox="0 0 214.187 87.948"><title>logo-akana-tagline</title><path d="M350.492,302.336c-2.294,1.546-3.357,3.106-3.171,5.593.232,3.115.056,6.261.056,9.508h-7.985c-.031-.569-.088-1.124-.088-1.679q-.006-26.03-.033-52.058c0-1.372.346-1.879,1.757-1.773a32.544,32.544,0,0,0,4.715,0c1.344-.094,1.666.418,1.659,1.7-.048,9.174-.025,18.348-.025,27.523v2.305c.678-.584,1.1-.9,1.467-1.27,5.209-5.169,10.389-10.367,15.647-15.487a3.985,3.985,0,0,1,2.427-1.012c3.132-.117,6.27-.047,9.594-.047l-20.743,20.726,20.893,21a11.63,11.63,0,0,1-1.338.187c-2.831.012-5.665.076-8.491-.038a3.807,3.807,0,0,1-2.293-.962c-4.381-4.216-8.693-8.5-13.008-12.788A11.143,11.143,0,0,1,350.492,302.336Z" transform="translate(-290.42 -261.914)" fill="#e8262a"/><path d="M427.317,317.482h-7.984c-.033-.62-.088-1.177-.089-1.734q-.008-11.25,0-22.5c.018-9.552,7.882-17.753,17.6-18.381,8.782-.567,17.746,6.948,18.969,15.942a24.825,24.825,0,0,1,.135,3.3q.016,10.7.006,21.4v1.942H447.88c0-.661,0-1.273,0-1.885,0-7.447.1-14.9-.042-22.343a10.365,10.365,0,0,0-10.346-10.282,10.535,10.535,0,0,0-10.17,10.669c-.02,7.291,0,14.581,0,21.872Z" transform="translate(-290.42 -261.914)" fill="#e8262a"/><path d="M503.031,295.991a21.843,21.843,0,0,0-25.573-20.839c-10.237,1.74-19.612,11.859-17.757,24.5,1.186,8.081,5.521,13.955,12.954,17.06,7.406,3.094,14.566,1.99,20.989-3.017.349-.272.725-.509,1.343-.94v4.687h7.98a5.6,5.6,0,0,0,.1-.7C503.067,309.83,503.235,302.9,503.031,295.991Zm-21.884,14.328a13.692,13.692,0,0,1,.127-27.383,13.692,13.692,0,1,1-.127,27.383Z" transform="translate(-290.42 -261.914)" fill="#e8262a"/><path d="M334.079,296.959c.16-12.834-10.645-21.278-19.792-22.036-14.548-1.206-26.486,11.936-23.367,26.245,3.543,16.257,21.941,22.294,33.925,12.362.263-.218.571-.382,1.164-.774v4.7h8.056v-1.785C334.065,309.432,334,303.2,334.079,296.959Zm-21.85,13.36a13.691,13.691,0,1,1,.112-27.382,13.691,13.691,0,1,1-.112,27.382Z" transform="translate(-290.42 -261.914)" fill="#e8262a"/><path d="M415.609,296.44a21.75,21.75,0,1,0-43.028,4.658,20.9,20.9,0,0,0,33.613,12.662c.35-.277.714-.536,1.326-.994v4.689h8.09v-1.821Q415.61,306.037,415.609,296.44Zm-21.833,13.879a13.692,13.692,0,0,1,.11-27.383,13.692,13.692,0,1,1-.11,27.383Z" transform="translate(-290.42 -261.914)" fill="#e8262a"/><path d="M396.882,345.652V330.613h2.08v6.28H399a4.212,4.212,0,0,1,3.624-1.788,4.943,4.943,0,0,1,2.637.7,4.663,4.663,0,0,1,1.759,1.919,5.991,5.991,0,0,1,.613,2.739,6.226,6.226,0,0,1-.363,2.148,5.316,5.316,0,0,1-1,1.724,4.472,4.472,0,0,1-1.6,1.142,5.2,5.2,0,0,1-2.093.415,4.565,4.565,0,0,1-2.076-.468,4.153,4.153,0,0,1-1.567-1.4h-.039v1.621Zm1.993-5.2a4.484,4.484,0,0,0,.229,1.458,3.6,3.6,0,0,0,.645,1.168,2.834,2.834,0,0,0,1.044.776,3.384,3.384,0,0,0,1.392.28,3.187,3.187,0,0,0,1.768-.486,3.078,3.078,0,0,0,1.137-1.316,4.759,4.759,0,0,0,0-3.755,3.051,3.051,0,0,0-1.137-1.306,3.5,3.5,0,0,0-3.54,0,3.069,3.069,0,0,0-1.148,1.306A4.336,4.336,0,0,0,398.875,340.447Z" transform="translate(-290.42 -261.914)" fill="#505050"/><path d="M408.857,335.271l2.187.02,3.077,8.065,3.037-8.085,2.168.02-5,12.168a4.744,4.744,0,0,1-1.172,1.855,2.318,2.318,0,0,1-1.553.547,5.233,5.233,0,0,1-1-.1,4.649,4.649,0,0,1-.718-.182l-.234-.1.41-1.666a2.861,2.861,0,0,0,1.094.235h.049c.111,0,.2,0,.258-.01a1.051,1.051,0,0,0,.249-.068.7.7,0,0,0,.269-.182,2.156,2.156,0,0,0,.254-.362,3.581,3.581,0,0,0,.269-.592l.5-1.38Z" transform="translate(-290.42 -261.914)" fill="#505050"/><path d="M426.253,345.652V330.613h4.216a4.6,4.6,0,0,1,4.249,1.709,3.539,3.539,0,0,1,.452.728,3.883,3.883,0,0,1,.283.859,4.814,4.814,0,0,1,.1.991,4.3,4.3,0,0,1-.364,1.836,4.053,4.053,0,0,1-1.085,1.387,5.406,5.406,0,0,1-3.628,1.074h-2.11v6.455Zm2.11-8.173h1.943a3.763,3.763,0,0,0,2.178-.567,2.252,2.252,0,0,0,.659-.825,2.685,2.685,0,0,0,.249-1.187,2.75,2.75,0,0,0-.122-.83,2.437,2.437,0,0,0-.322-.674,2.11,2.11,0,0,0-.464-.478,3.642,3.642,0,0,0-2.178-.586h-1.943Z" transform="translate(-290.42 -261.914)" fill="#505050"/><path d="M436.9,340.467a5.716,5.716,0,0,1,.42-2.207,4.98,4.98,0,0,1,1.133-1.7,5.071,5.071,0,0,1,1.67-1.07,5.436,5.436,0,0,1,2.031-.381,5.125,5.125,0,0,1,2.549.63,4.473,4.473,0,0,1,1.754,1.758,5.178,5.178,0,0,1,.628,2.564c0,.117,0,.25-.015.4s-.021.273-.034.371l-.01.137h-8.017a3.4,3.4,0,0,0,.987,2.384,3.267,3.267,0,0,0,2.353.868,5.525,5.525,0,0,0,.916-.077,4.816,4.816,0,0,0,.783-.193q.328-.117.657-.271a4.846,4.846,0,0,0,.509-.27q.181-.115.368-.241c.124-.083.189-.129.195-.135l.892,1.187a.493.493,0,0,0-.094.085c-.056.056-.118.115-.187.175s-.16.135-.275.225a3.426,3.426,0,0,1-.387.26q-.216.125-.491.269a4.138,4.138,0,0,1-.613.261c-.226.076-.465.145-.717.2a7.624,7.624,0,0,1-.848.145,8.531,8.531,0,0,1-.972.054,5.4,5.4,0,0,1-2.7-.664,4.589,4.589,0,0,1-1.831-1.9A6.046,6.046,0,0,1,436.9,340.467Zm2.129-.889h6.045a2.86,2.86,0,0,0-.108-.762,3.2,3.2,0,0,0-.346-.791,3.239,3.239,0,0,0-.577-.713,2.592,2.592,0,0,0-.844-.507,3.064,3.064,0,0,0-1.114-.2,3.18,3.18,0,0,0-1.1.186,2.571,2.571,0,0,0-.85.493,3.451,3.451,0,0,0-.962,1.5A3.286,3.286,0,0,0,439.029,339.578Z" transform="translate(-290.42 -261.914)" fill="#505050"/><path d="M449.617,345.652V335.291h2.109l-.019,1.629h.058a3.341,3.341,0,0,1,.64-1,2.552,2.552,0,0,1,.869-.609,2.646,2.646,0,0,1,1.04-.2,3.732,3.732,0,0,1,.586.044,3.114,3.114,0,0,1,.391.083l.117.036-.127,1.761H454.06a1.891,1.891,0,0,0-1.04.278,2.51,2.51,0,0,0-.669.589,4.692,4.692,0,0,0-.625,2.608v5.148Z" transform="translate(-290.42 -261.914)" fill="#505050"/><path d="M456.318,337v-1.68H457.8v-1.045a4.446,4.446,0,0,1,.7-2.773,3.187,3.187,0,0,1,1.021-.811,3.131,3.131,0,0,1,1.453-.322,7.654,7.654,0,0,1,.986.059,3,3,0,0,1,.625.127l.186.061-.137,1.618a3.977,3.977,0,0,0-1.181-.185,1.814,1.814,0,0,0-.684.118,1.289,1.289,0,0,0-.464.305,1.3,1.3,0,0,0-.268.476,2.872,2.872,0,0,0-.132.58,5.735,5.735,0,0,0-.034.67v1.122h2.47V337h-2.47v8.652H457.8V337Z" transform="translate(-290.42 -261.914)" fill="#505050"/><path d="M463.146,340.516a5.641,5.641,0,0,1,.425-2.2,5,5,0,0,1,1.162-1.719,5.3,5.3,0,0,1,1.748-1.1,5.877,5.877,0,0,1,2.163-.4,5.8,5.8,0,0,1,2.145.4,5.246,5.246,0,0,1,1.735,1.1,5.052,5.052,0,0,1,1.155,1.719,5.891,5.891,0,0,1,0,4.389,5.009,5.009,0,0,1-1.155,1.709,5.222,5.222,0,0,1-1.735,1.089,5.877,5.877,0,0,1-2.145.39,6.427,6.427,0,0,1-1.284-.126,5.341,5.341,0,0,1-1.162-.376,5.683,5.683,0,0,1-1.016-.6,4.6,4.6,0,0,1-.845-.811,5.517,5.517,0,0,1-.639-.991,4.957,4.957,0,0,1-.41-1.166A5.967,5.967,0,0,1,463.146,340.516Zm2.109-.069a4.2,4.2,0,0,0,.406,1.87,3.183,3.183,0,0,0,1.181,1.321,3.3,3.3,0,0,0,1.8.491,3.241,3.241,0,0,0,1.777-.491,3.155,3.155,0,0,0,1.172-1.321,4.242,4.242,0,0,0,.4-1.87,4.166,4.166,0,0,0-.4-1.845,3.195,3.195,0,0,0-2.949-1.817,3.28,3.28,0,0,0-1.8.5,3.226,3.226,0,0,0-1.181,1.321A4.128,4.128,0,0,0,465.255,340.447Z" transform="translate(-290.42 -261.914)" fill="#505050"/><path d="M476.781,345.652V335.291h2.109l-.019,1.629h.058a3.36,3.36,0,0,1,.64-1,2.552,2.552,0,0,1,.869-.609,2.646,2.646,0,0,1,1.04-.2,3.723,3.723,0,0,1,.586.044,3.114,3.114,0,0,1,.391.083l.117.036-.127,1.761h-1.221a1.891,1.891,0,0,0-1.04.278,2.526,2.526,0,0,0-.669.589,4.692,4.692,0,0,0-.625,2.608v5.148Z" transform="translate(-290.42 -261.914)" fill="#505050"/><path d="M483.58,340.506a5.658,5.658,0,0,1,.439-2.245,4.972,4.972,0,0,1,1.177-1.715,5.407,5.407,0,0,1,3.677-1.441,7.641,7.641,0,0,1,1.245.1,4.914,4.914,0,0,1,1.01.267q.42.168.743.331a2.679,2.679,0,0,1,.551.36c.153.132.259.226.318.281s.107.107.146.154l-.742,1.526-.288-.269a4.256,4.256,0,0,0-.425-.317,3.525,3.525,0,0,0-.6-.332,4.563,4.563,0,0,0-.777-.229,4.632,4.632,0,0,0-.991-.1,3.368,3.368,0,0,0-1.3.254,3.314,3.314,0,0,0-1.069.708,3.262,3.262,0,0,0-.727,1.128,3.93,3.93,0,0,0-.269,1.475,3.79,3.79,0,0,0,.942,2.661,3.163,3.163,0,0,0,2.447,1.03,4.4,4.4,0,0,0,1.1-.137,3.9,3.9,0,0,0,.884-.327,5.849,5.849,0,0,0,.625-.386,3.257,3.257,0,0,0,.4-.322l.127-.137.743,1.521a.861.861,0,0,1-.069.058q-.175.184-.317.309a4.777,4.777,0,0,1-.523.372,4.376,4.376,0,0,1-.786.406,6.17,6.17,0,0,1-1.059.285,7.469,7.469,0,0,1-1.4.125,5.321,5.321,0,0,1-3.657-1.449A4.905,4.905,0,0,1,484,342.739,5.782,5.782,0,0,1,483.58,340.506Z" transform="translate(-290.42 -261.914)" fill="#505050"/><path d="M494.421,340.467a5.734,5.734,0,0,1,.42-2.207,4.98,4.98,0,0,1,1.133-1.7,5.081,5.081,0,0,1,1.67-1.07,5.44,5.44,0,0,1,2.031-.381,5.129,5.129,0,0,1,2.55.63,4.47,4.47,0,0,1,1.753,1.758,5.179,5.179,0,0,1,.629,2.564c0,.117-.005.25-.015.4s-.022.273-.035.371l-.01.137h-8.016a3.4,3.4,0,0,0,.986,2.384,3.27,3.27,0,0,0,2.354.868,5.534,5.534,0,0,0,.916-.077,4.869,4.869,0,0,0,.783-.193c.219-.078.437-.168.656-.271a4.777,4.777,0,0,0,.51-.27c.12-.077.243-.157.367-.241s.189-.129.2-.135l.892,1.187a.461.461,0,0,0-.094.085c-.056.056-.119.115-.188.175s-.16.135-.275.225a3.337,3.337,0,0,1-.387.26q-.216.125-.491.269a4.093,4.093,0,0,1-.613.261c-.226.076-.464.145-.716.2a7.684,7.684,0,0,1-.849.145,8.526,8.526,0,0,1-.971.054,5.393,5.393,0,0,1-2.7-.664,4.583,4.583,0,0,1-1.831-1.9A6.046,6.046,0,0,1,494.421,340.467Zm2.129-.889H502.6a2.857,2.857,0,0,0-.107-.762,3.355,3.355,0,0,0-.923-1.5,2.6,2.6,0,0,0-.845-.507,3.055,3.055,0,0,0-1.113-.2,3.19,3.19,0,0,0-1.1.186,2.566,2.566,0,0,0-.849.493,3.332,3.332,0,0,0-.591.7,3.3,3.3,0,0,0-.371.8A3.24,3.24,0,0,0,496.55,339.578Z" transform="translate(-290.42 -261.914)" fill="#505050"/></svg>